<svg xmlns="http://www.w3.org/2000/svg" enable-background="new 0 0 24 24" viewBox="0 0 24 24"><path fill="#47848F" d="M8.741,5.159C5.604,4.587,3.125,5.185,2.136,6.897c-0.737,1.277-0.527,2.971,0.511,4.781c0.089,0.154,0.285,0.208,0.439,0.119c0.154-0.088,0.208-0.285,0.119-0.439c-0.935-1.631-1.117-3.092-0.512-4.14c0.821-1.422,3.033-1.955,5.932-1.427C8.8,5.826,8.969,5.712,9.004,5.539C9.038,5.365,8.925,5.195,8.75,5.16L8.741,5.159L8.741,5.159z M4.278,13.879c1.268,1.394,2.915,2.701,4.794,3.786c4.55,2.627,9.393,3.329,11.78,1.702c0.146-0.101,0.183-0.302,0.082-0.448c-0.1-0.145-0.298-0.182-0.444-0.084c-2.136,1.457-6.737,0.79-11.095-1.727c-1.823-1.052-3.419-2.318-4.641-3.661C4.637,13.312,4.433,13.3,4.3,13.417c-0.133,0.117-0.146,0.321-0.029,0.454L4.278,13.879L4.278,13.879z"/><path fill="#47848F" d="M20.091,13.487c2.054-2.426,2.771-4.866,1.785-6.574c-0.726-1.257-2.26-1.92-4.299-1.947c-0.178-0.002-0.324,0.14-0.326,0.318c-0.002,0.177,0.139,0.323,0.317,0.326c1.834,0.024,3.156,0.596,3.75,1.626c0.819,1.419,0.18,3.595-1.718,5.837c-0.118,0.134-0.104,0.337,0.029,0.454c0.134,0.117,0.337,0.104,0.454-0.029L20.091,13.487L20.091,13.487z M14.814,5.266c-1.857,0.398-3.833,1.176-5.731,2.271c-4.697,2.712-7.761,6.71-7.335,9.609c0.021,0.177,0.181,0.302,0.358,0.281c0.176-0.021,0.302-0.181,0.281-0.357l-0.002-0.017c-0.378-2.574,2.526-6.364,7.02-8.958c1.841-1.063,3.755-1.816,5.544-2.2c0.173-0.042,0.279-0.215,0.238-0.388C15.146,5.34,14.982,5.234,14.814,5.266L14.814,5.266z"/><path fill="#47848F" d="M7.205,19.156C8.279,22.154,10.035,24,12.011,24c1.44,0,2.773-0.982,3.812-2.71c0.096-0.149,0.053-0.349-0.096-0.445c-0.15-0.096-0.349-0.053-0.444,0.096l-0.01,0.017c-0.934,1.554-2.082,2.399-3.262,2.399c-1.641,0-3.208-1.646-4.2-4.418c-0.056-0.168-0.238-0.259-0.407-0.203c-0.168,0.057-0.26,0.239-0.203,0.407L7.205,19.156L7.205,19.156z M17.013,18.569c0.556-1.776,0.855-3.825,0.855-5.96c0-5.328-1.865-9.921-4.521-11.101c-0.163-0.07-0.353,0.006-0.422,0.17c-0.068,0.16,0.003,0.345,0.161,0.418c2.368,1.052,4.138,5.411,4.138,10.513c0,2.071-0.289,4.056-0.825,5.769c-0.058,0.168,0.032,0.351,0.201,0.408c0.168,0.057,0.351-0.033,0.408-0.201L17.013,18.569L17.013,18.569z M23.07,18.255c0.001-0.85-0.688-1.539-1.538-1.539c-0.85-0.001-1.54,0.688-1.54,1.538v0.001c0,0.85,0.69,1.539,1.54,1.538C22.381,19.793,23.069,19.104,23.07,18.255L23.07,18.255z M22.427,18.255c0,0.495-0.401,0.896-0.896,0.896c-0.495,0-0.897-0.401-0.897-0.895v-0.001c0-0.495,0.402-0.896,0.897-0.896C22.025,17.359,22.426,17.76,22.427,18.255L22.427,18.255z M2.469,19.794c0.85,0,1.54-0.689,1.54-1.539c0-0.85-0.688-1.539-1.539-1.54H2.469c-0.85,0-1.539,0.69-1.538,1.54C0.931,19.105,1.619,19.794,2.469,19.794L2.469,19.794z M2.469,19.151c-0.495,0-0.896-0.401-0.896-0.896s0.401-0.896,0.896-0.896s0.896,0.401,0.896,0.896S2.964,19.151,2.469,19.151L2.469,19.151z"/><path fill="#47848F" d="M12.011,3.079c0.85,0,1.539-0.69,1.539-1.54S12.861,0,12.011,0c-0.85,0-1.539,0.689-1.539,1.539S11.161,3.079,12.011,3.079L12.011,3.079z M12.011,2.435c-0.495,0-0.896-0.401-0.896-0.896c0-0.495,0.401-0.896,0.896-0.896c0.495,0,0.896,0.401,0.896,0.896C12.907,2.034,12.506,2.435,12.011,2.435L12.011,2.435L12.011,2.435z M12.246,13.698c-0.602,0.13-1.194-0.252-1.324-0.854c-0.13-0.601,0.252-1.194,0.853-1.324c0.604-0.121,1.191,0.27,1.311,0.874C13.204,12.984,12.832,13.562,12.246,13.698L12.246,13.698L12.246,13.698z"/><path fill="#3E737C" d="M4.513,13.337c-0.076,0-0.151,0.026-0.213,0.08c-0.133,0.117-0.146,0.321-0.029,0.454l0.007,0.008c1.268,1.394,2.915,2.701,4.794,3.786c0.971,0.561,1.956,1.034,2.927,1.415v-0.693c-0.864-0.352-1.74-0.779-2.605-1.279c-1.823-1.052-3.419-2.318-4.641-3.661C4.691,13.374,4.602,13.337,4.513,13.337L4.513,13.337z M6.559,4.948c-2.084,0-3.677,0.657-4.423,1.948c-0.737,1.277-0.527,2.971,0.511,4.781c0.06,0.104,0.168,0.162,0.279,0.162c0.054,0,0.109-0.014,0.16-0.043c0.154-0.088,0.208-0.285,0.119-0.439c-0.935-1.631-1.117-3.092-0.512-4.14C3.306,6.158,4.692,5.592,6.56,5.592c0.636,0,1.328,0.066,2.065,0.2c0.021,0.004,0.042,0.006,0.062,0.006c0.151,0,0.285-0.106,0.316-0.259C9.038,5.365,8.925,5.195,8.75,5.16l-0.01-0.001C7.97,5.018,7.238,4.948,6.559,4.948L6.559,4.948z"/><path fill="#3E737C" d="M2.208,17.397c-0.024,0.007-0.048,0.016-0.071,0.025C2.162,17.416,2.186,17.408,2.208,17.397L2.208,17.397z M12,6.125c-0.975,0.384-1.956,0.857-2.917,1.411c-4.571,2.639-7.595,6.496-7.362,9.372c0.19-0.106,0.404-0.173,0.633-0.19c-0.099-2.56,2.747-6.141,7.051-8.625C10.26,7.6,11.132,7.173,12,6.818V6.125L12,6.125z"/><path fill="#3E737C" d="M7.506,18.719c-0.034,0-0.068,0.005-0.102,0.017c-0.168,0.057-0.26,0.239-0.203,0.407l0.004,0.013C8.277,22.148,10.029,23.993,12,24v-0.643c-1.637-0.007-3.199-1.652-4.19-4.418C7.766,18.804,7.64,18.719,7.506,18.719L7.506,18.719z M2.208,17.397c0.082-0.025,0.17-0.038,0.26-0.038c0.495,0,0.896,0.401,0.896,0.896s-0.401,0.896-0.896,0.896s-0.896-0.401-0.896-0.896c0-0.378,0.234-0.701,0.565-0.833C2.161,17.412,2.184,17.404,2.208,17.397L2.208,17.397z M2.47,16.715H2.469c-0.038,0-0.077,0.001-0.115,0.004c-0.228,0.017-0.443,0.084-0.633,0.19c-0.472,0.263-0.791,0.767-0.791,1.346c0,0.85,0.689,1.538,1.538,1.539c0.85,0,1.54-0.689,1.54-1.539C4.009,17.405,3.321,16.716,2.47,16.715L2.47,16.715z"/><path fill="#DEDEDE" d="M12,0.643c-0.49,0.006-0.885,0.405-0.885,0.896c0,0.491,0.395,0.89,0.885,0.896V0.643L12,0.643z"/><path fill="#3E737C" d="M11.995,11.498c-0.073,0-0.146,0.007-0.22,0.022c-0.601,0.13-0.983,0.723-0.853,1.324c0.112,0.519,0.569,0.874,1.078,0.879v-2.225C11.998,11.498,11.997,11.498,11.995,11.498L11.995,11.498z M12,0c-0.845,0.006-1.528,0.693-1.528,1.539c0,0.846,0.683,1.534,1.528,1.539V2.435c-0.49-0.006-0.885-0.404-0.885-0.896c0-0.491,0.395-0.89,0.885-0.896V0L12,0z"/></svg>